<?xml version='1.0' encoding='utf-8'?>
<svg xmlns="http://www.w3.org/2000/svg" viewBox="0 0 550 550" id="svg2" version="1.1">
    <defs id="defs4" />
    <metadata id="metadata7"> </metadata>
    <g id="layer1" transform="translate(0,-540.36219)">
        <circle
            style="color:#000000;clip-rule:nonzero;display:inline;overflow:visible;visibility:visible;opacity:1;isolation:auto;mix-blend-mode:normal;color-interpolation:sRGB;color-interpolation-filters:linearRGB;solid-color:#000000;solid-opacity:1;fill:#f9f9f9;fill-opacity:1;fill-rule:nonzero;stroke:none;stroke-width:1;stroke-linecap:butt;stroke-linejoin:miter;stroke-miterlimit:4;stroke-dasharray:none;stroke-dashoffset:0;stroke-opacity:1;color-rendering:auto;image-rendering:auto;shape-rendering:auto;text-rendering:auto;enable-background:accumulate"
            id="path4148" cx="256" cy="796.36218" r="256" />
        <g transform="matrix(4.1243159,0,0,4.1243159,-2279.5738,-3262.5232)" id="g4260">
            <g style="fill:#008c38;fill-opacity:1" id="g4337"
                transform="matrix(0.21466192,0,0,0.21466192,565.12992,935.48882)">
                <g style="fill:#008c38;fill-opacity:1" id="g4339">
                    <path style="fill:#008c38;fill-opacity:1" id="path4341"
                        d="M 230.149,120.939 65.986,256.274 c 0,0.191 -0.048,0.472 -0.144,0.855 -0.094,0.38 -0.144,0.656 -0.144,0.852 l 0,137.041 c 0,4.948 1.809,9.236 5.426,12.847 3.616,3.613 7.898,5.431 12.847,5.431 l 109.63,0 0,-109.636 73.097,0 0,109.64 109.629,0 c 4.948,0 9.236,-1.814 12.847,-5.435 3.617,-3.607 5.432,-7.898 5.432,-12.847 l 0,-137.041 c 0,-0.76 -0.104,-1.334 -0.288,-1.707 L 230.149,120.939 Z" />
                    <path style="fill:#008c38;fill-opacity:1" id="path4343"
                        d="m 457.122,225.438 -62.522,-51.962 0,-116.487 c 0,-2.663 -0.856,-4.853 -2.574,-6.567 -1.704,-1.712 -3.894,-2.568 -6.563,-2.568 l -54.816,0 c -2.666,0 -4.855,0.856 -6.57,2.568 -1.711,1.714 -2.566,3.905 -2.566,6.567 l 0,55.673 -69.662,-58.245 c -6.084,-4.949 -13.318,-7.423 -21.694,-7.423 -8.375,0 -15.608,2.474 -21.698,7.423 L 3.172,225.438 c -1.903,1.52 -2.946,3.566 -3.14,6.136 -0.193,2.568 0.472,4.811 1.997,6.713 l 17.701,21.128 c 1.525,1.712 3.521,2.759 5.996,3.142 2.285,0.192 4.57,-0.476 6.855,-1.998 L 230.149,95.817 427.719,260.558 c 1.526,1.328 3.521,1.991 5.996,1.991 l 0.858,0 c 2.471,-0.376 4.463,-1.43 5.996,-3.138 l 17.703,-21.125 c 1.522,-1.906 2.189,-4.145 1.991,-6.716 -0.195,-2.563 -1.242,-4.609 -3.141,-6.132 z" />
                </g>
            </g>
            <g transform="matrix(0.21466192,0,0,0.21466192,565.635,933.97358)" id="g3" style="fill:#00aa44">
                <g id="g5" style="fill:#00aa44">
                    <path
                        d="M 230.149,120.939 65.986,256.274 c 0,0.191 -0.048,0.472 -0.144,0.855 -0.094,0.38 -0.144,0.656 -0.144,0.852 l 0,137.041 c 0,4.948 1.809,9.236 5.426,12.847 3.616,3.613 7.898,5.431 12.847,5.431 l 109.63,0 0,-109.636 73.097,0 0,109.64 109.629,0 c 4.948,0 9.236,-1.814 12.847,-5.435 3.617,-3.607 5.432,-7.898 5.432,-12.847 l 0,-137.041 c 0,-0.76 -0.104,-1.334 -0.288,-1.707 L 230.149,120.939 Z"
                        id="path7" style="fill:#00aa44" />
                    <path
                        d="m 457.122,225.438 -62.522,-51.962 0,-116.487 c 0,-2.663 -0.856,-4.853 -2.574,-6.567 -1.704,-1.712 -3.894,-2.568 -6.563,-2.568 l -54.816,0 c -2.666,0 -4.855,0.856 -6.57,2.568 -1.711,1.714 -2.566,3.905 -2.566,6.567 l 0,55.673 -69.662,-58.245 c -6.084,-4.949 -13.318,-7.423 -21.694,-7.423 -8.375,0 -15.608,2.474 -21.698,7.423 L 3.172,225.438 c -1.903,1.52 -2.946,3.566 -3.14,6.136 -0.193,2.568 0.472,4.811 1.997,6.713 l 17.701,21.128 c 1.525,1.712 3.521,2.759 5.996,3.142 2.285,0.192 4.57,-0.476 6.855,-1.998 L 230.149,95.817 427.719,260.558 c 1.526,1.328 3.521,1.991 5.996,1.991 l 0.858,0 c 2.471,-0.376 4.463,-1.43 5.996,-3.138 l 17.703,-21.125 c 1.522,-1.906 2.189,-4.145 1.991,-6.716 -0.195,-2.563 -1.242,-4.609 -3.141,-6.132 z"
                        id="path9" style="fill:#00aa44" />
                </g>
            </g>
        </g>
    </g>
</svg>