<svg xmlns="http://www.w3.org/2000/svg" viewBox="0 0 400 400">
  <ellipse style="fill:#f3db07;fill-opacity:1" cx="204.917" cy="205.375" rx="195.713" ry="197.088"/>
  <path style="fill:#000" d="M198.851 29.43c-72.588.56-140.304 53.346-160.188 122.936C21.826 207.148 34.33 269.91 71.447 313.69c19.183 22.924 44.409 40.926 72.462 51.244 9.897-11.098 16.492-27.73 24.718-41.144 8.826-15.319-22.944-13.61-29.58-24.637-33.03-23.952-52.542-65.414-48.307-106.225 2.584-56.793 52.836-107.584 110.226-108.185 56.915-3.25 109.358 43.548 116.868 99.298 6.523 41.827-10.121 86.36-43.919 112.269-9.057 10.686-30.075 13.065-35.695 22.584 8.464 15.152 15.922 31.141 26.354 45.013 17.554-3.282 33.724-14.998 48.067-25.703 30.675-24.916 53.374-59.694 61.443-98.568 14.437-63.758-10.712-134.261-62.756-173.994-31.668-25.131-72.17-37.794-112.477-36.212Z"/>
  <path style="fill:#0376a7" d="M204.791 513.828c0-.121 6.141-11.192 13.647-24.602 44.155-78.886 52.978-95.183 52.978-97.85 0-1.754-1.372-2.446-11.016-5.555-14.03-4.524-20.039-7.98-27.561-15.854-11.173-11.695-16.422-25.92-15.624-42.345.671-13.812 5.59-25.147 15.338-35.347 4.488-4.695 9.642-8.195 18.109-12.296 8.3-4.019 11.261-4.521 24.421-4.139 12.085.351 13.701.747 23.311 5.71 13.152 6.794 22.032 16.88 27.513 31.253l2.038 5.345v13.142c-.002 14.525-.21 15.656-4.425 24.144-3.077 6.195-6.666 10.98-12.204 16.268-7.811 7.46-13.3 10.274-29.7 15.222-4.385 1.324-8.19 2.624-8.456 2.89s.172 1.9.973 3.629c.801 1.73 15.927 29.155 33.613 60.944 17.686 31.79 32.317 58.22 32.513 58.731.319.83-6.976.931-67.555.931-37.352 0-67.913-.099-67.913-.22z" transform="scale(.75)"/>
</svg>
